<svg xmlns="http://www.w3.org/2000/svg" viewBox="0 0 100 100" xml:space="preserve" width="100" height="100">
  <path style="fill:#59aae7" d="M100 50a50 50 0 0 1-50 50A50 50 0 0 1 0 50a50 50 0 0 1 100 0"/>
  <path style="fill:#3d9ae3" d="M50 0c-2.21 0-4.387.145-6.522.423C68.011 3.619 86.956 24.596 86.956 50S68.01 96.381 43.478 99.577A51 51 0 0 0 50 100c27.614 0 50-22.386 50-50S77.614 0 50 0"/>
  <path style="fill:#fcfcfc" d="M32.166 60.77 16.04 52.707a.604.604 0 0 1-.007-1.077l61.262-31.688c.45-.233.97.158.87.655L67.617 73.335a.604.604 0 0 1-.831.437l-14.335-6.143a.6.6 0 0 0-.531.027L33.397 77.947a.604.604 0 0 1-.898-.528V61.311a.6.6 0 0 0-.334-.541"/>
  <path style="fill:#d8d7da" d="m39.123 66.204-.1-16.099a.29.29 0 0 1 .141-.253l26.152-15.976c.296-.181.607.212.362.458L45.776 54.378a.3.3 0 0 0-.054.076l-3.404 6.808-2.638 5.076c-.142.272-.553.173-.555-.133"/>
</svg>
